<?xml version="1.0" encoding="UTF-8"?>
<svg xmlns="http://www.w3.org/2000/svg" version="1.1" viewBox="0 0 121.3 122.9">
  <defs>
    <style>
      .cls-1 {
        opacity: .9;
      }

      .cls-2 {
        fill: #fff;
        fill-rule: evenodd;
      }
    </style>
  </defs>
  <!-- Generator: Adobe Illustrator 28.7.1, SVG Export Plug-In . SVG Version: 1.2.0 Build 142)  -->
  <g>
    <g id="Layer_1">
      <g class="cls-1">
        <path class="cls-2" d="M81.6,22.7c4.8-4.9,12.6-4.9,17.4,0,4.8,4.8,4.8,12.7,0,17.5l-21,21.3,21,21.3c4.7,4.8,4.7,12.6-.1,17.4-4.8,4.8-12.6,4.8-17.3,0l-20.9-21.2-20.9,21.2c-4.8,4.9-12.6,4.9-17.4,0-4.8-4.8-4.8-12.7,0-17.5l21-21.3-21-21.3c-4.7-4.8-4.7-12.6.1-17.4,4.8-4.8,12.6-4.8,17.3,0l20.9,21.2,20.9-21.2h0Z"/>
      </g>
    </g>
  </g>
</svg>